<svg xmlns="http://www.w3.org/2000/svg" width="80" height="80" preserveAspectRatio="xMidYMid meet" viewBox="0 0 80 80">
  <path fill="#7d38a8" d="M26,15a5.6,5.6 0 1,1 11.2,0a5.6,5.6 0 1,1 -11.2,0M43,15a5.6,5.6 0 1,1 11.2,0a5.6,5.6 0 1,1 -11.2,0M43,65a5.6,5.6 0 1,1 11.2,0a5.6,5.6 0 1,1 -11.2,0M26,65a5.6,5.6 0 1,1 11.2,0a5.6,5.6 0 1,1 -11.2,0M9,32a5.6,5.6 0 1,1 11.2,0a5.6,5.6 0 1,1 -11.2,0M60,32a5.6,5.6 0 1,1 11.2,0a5.6,5.6 0 1,1 -11.2,0M60,48a5.6,5.6 0 1,1 11.2,0a5.6,5.6 0 1,1 -11.2,0M9,48a5.6,5.6 0 1,1 11.2,0a5.6,5.6 0 1,1 -11.2,0"/><path fill="#d6bae8" d="M23,15L15,6L6,15L15,23ZM65,23L74,15L65,6L57,15ZM57,65L65,74L74,65L65,57ZM15,57L6,65L15,74L23,65Z"/>
  <path fill="#ae75d1" d="M23,40L33,40L40,26L40,23L23,23ZM40,23L40,33L54,40L57,40L57,23ZM57,40L47,40L40,54L40,57L57,57ZM40,57L40,47L26,40L23,40L23,57Z"/>
</svg>
